# xmcd
#
# Track frame offsets: 
#        150
#        18878
#        41697
#        57784
#        77414
#        100267
#        116313
#        135326
#        150499
#        173921
#        190681
#        210976
#        237342
#        260489
#        286720
#        304660
#        332940
#
# Disc length: 4780 seconds
#
# Revision: 0
# Processed by: cddbd v1.5.2PL0 Copyright (c) Steve Scherf et al.
# Submitted via: ExactAudioCopy v1.3
#
DISCID=d112aa11
DTITLE=Various Artist - Akella Presents - vol. 200 - Various Styles O
DTITLE=f Blues  CD2
DYEAR=2019
DGENRE=Blues
TTITLE0=Jimmy Barnes - My Criminal Record
TTITLE1=Lachy Doley - The Greatest Blues
TTITLE2=Jimy Rev - Dying of Thirst
TTITLE3=Watermelon Slim - The Water Song
TTITLE4=The Blue Flames - The Thrill Is Gone
TTITLE5=Don Felder - Little Latin Lover
TTITLE6=Finis Tasby - Gonna Miss Your Love
TTITLE7=Tullie Brae - Watch Her Move
TTITLE8=Nick Schnebelen - I Leaned My Heart On You
TTITLE9=Kenny Wayne Shepherd Band - Gravity
TTITLE10=Bluescorp - Something Going Down
TTITLE11=Letizia Micheli - On the Road Again
TTITLE12=Mick Simpson - Lonely Avenue
TTITLE13=Sound Company - (I Hear) Rain
TTITLE14=Burton Gaar - No
TTITLE15=Kerry Kearney - Smokehouse Serenade
TTITLE16=King Bee and The Stingers - Meet Me In Memphis
EXTD=
EXTT0=
EXTT1=
EXTT2=
EXTT3=
EXTT4=
EXTT5=
EXTT6=
EXTT7=
EXTT8=
EXTT9=
EXTT10=
EXTT11=
EXTT12=
EXTT13=
EXTT14=
EXTT15=
EXTT16=
PLAYORDER=
